<?xml version="1.0" encoding="utf-8"?>
<svg xmlns="http://www.w3.org/2000/svg" xmlns:svg="http://www.w3.org/2000/svg" version="1.1" viewBox="0 0 1400 340">
	<title>The titlepage for the Standard Ebooks edition of Le Morte D’Arthur, by Thomas Malory</title>
	<g aria-label="LE MORTE D’ARTHUR">
		<path d="M 183.75292,52.807016 H 166.16227 V 130 h 44.16375 v -15.4386 h -26.5731 z"/>
		<path d="M 268.14034,52.807016 H 223.9766 V 130 h 44.16374 v -15.4386 h -26.5731 V 99.029239 h 25.4503 V 83.590642 h -25.4503 V 68.245613 h 26.5731 z"/>
		<path d="m 377.65058,130 h 17.59065 L 388.31725,52.807016 H 369.6038 L 352.48099,97.345029 335.35819,52.807016 H 316.64474 L 309.72076,130 h 17.59064 l 3.64912,-45.754387 h 0.46784 l 15.81287,45.286547 h 10.47953 l 15.81287,-45.286547 h 0.46783 z"/>
		<path d="m 403.82602,91.356724 c 0,22.549706 16.09356,40.046786 38.92397,40.046786 22.17544,0 38.83041,-17.49708 38.83041,-40.046786 0,-22.549708 -17.40351,-39.953217 -38.83041,-39.953217 -21.23976,0 -38.92397,17.403509 -38.92397,39.953217 z m 18.99415,0 c 0,-11.508772 6.36257,-23.017544 19.92982,-23.017544 13.66082,0 19.83626,11.508772 19.83626,23.017544 0,11.508776 -5.80117,23.017546 -19.83626,23.017546 -14.40935,0 -19.92982,-11.50877 -19.92982,-23.017546 z"/>
		<path d="M 494.34211,52.807016 V 130 h 17.59065 V 99.497075 L 535.5117,130 h 22.36258 l -26.5731,-31.906433 c 9.45029,-2.994152 15.81286,-10.760234 15.81286,-22.362574 0,-15.157895 -10.8538,-22.923977 -25.16959,-22.923977 z m 17.59065,34.245615 V 66.842104 h 2.05848 c 6.64327,0 14.59649,0.467836 14.59649,10.105263 0,9.637428 -7.95322,10.105264 -14.59649,10.105264 z"/>
		<path d="m 557.89034,68.245613 h 18.33918 V 130 h 17.59065 V 68.245613 h 18.33918 V 52.807016 h -54.26901 z"/>
		<path d="M 667.65789,52.807016 H 623.49415 V 130 h 44.16374 v -15.4386 h -26.5731 V 99.029239 h 25.4503 V 83.590642 h -25.4503 V 68.245613 h 26.5731 z"/>
		<path d="M 713.35527,52.807016 V 130 h 22.36257 c 21.23977,0 38.92398,-16.09357 38.92398,-38.643276 0,-22.45614 -17.77778,-38.549708 -38.92398,-38.549708 z M 730.94591,114.2807 V 68.526315 h 2.71345 c 13.09941,0 21.9883,10.011696 21.9883,22.923977 -0.0936,12.912278 -8.98245,22.830408 -21.9883,22.830408 z"/>
		<path d="m 797.07161,51.403507 c -5.33333,0 -9.63743,4.397661 -9.63743,9.824562 0,4.397661 3.18129,7.766082 7.29825,8.795322 -1.30994,7.111111 -6.45614,11.976608 -6.45614,11.976608 l 4.39766,3.461989 c 6.83041,-5.707603 14.22222,-14.035088 14.22222,-24.233919 0,-5.426901 -4.39766,-9.824562 -9.82456,-9.824562 z"/>
		<path d="M 858.86842,52.807016 H 842.58771 L 811.42982,130 h 18.90058 l 5.70761,-15.4386 h 29.38011 L 871.12573,130 h 18.90058 z m 0.5614,46.31579 h -17.40351 l 8.60819,-22.45614 h 0.18713 z"/>
		<path d="M 897.9459,52.807016 V 130 h 17.59065 V 99.497075 L 939.11549,130 h 22.36258 l -26.5731,-31.906433 c 9.45029,-2.994152 15.81286,-10.760234 15.81286,-22.362574 0,-15.157895 -10.8538,-22.923977 -25.16959,-22.923977 z m 17.59065,34.245615 V 66.842104 h 2.05848 c 6.64327,0 14.59649,0.467836 14.59649,10.105263 0,9.637428 -7.95322,10.105264 -14.59649,10.105264 z"/>
		<path d="m 961.49416,68.245613 h 18.33918 V 130 h 17.59065 V 68.245613 h 18.33921 V 52.807016 h -54.26904 z"/>
		<path d="m 1044.6886,99.029239 h 24.8889 V 130 h 17.5906 V 52.807016 h -17.5906 v 30.783626 h -24.8889 V 52.807016 h -17.5907 V 130 h 17.5907 z"/>
		<path d="m 1162.6916,52.807016 h -17.5907 v 44.63158 c 0,12.912284 -3.9298,16.654974 -12.538,16.654974 -8.6082,0 -12.538,-3.74269 -12.538,-16.654974 v -44.63158 h -17.5907 v 49.777774 c 0,19.08772 10.4796,28.81872 30.1287,28.81872 19.6491,0 30.1287,-9.731 30.1287,-28.81872 z"/>
		<path d="M 1177.9971,52.807016 V 130 h 17.5907 V 99.497075 L 1219.1667,130 h 22.3626 l -26.5731,-31.906433 c 9.4503,-2.994152 15.8128,-10.760234 15.8128,-22.362574 0,-15.157895 -10.8538,-22.923977 -25.1695,-22.923977 z m 17.5907,34.245615 V 66.842104 h 2.0584 c 6.6433,0 14.5965,0.467836 14.5965,10.105263 0,9.637428 -7.9532,10.105264 -14.5965,10.105264 z"/>
	</g>
	<g aria-label="THOMAS MALORY">
		<path d="m 339.9693,243.68421 h 13.75439 V 290 h 13.19298 v -46.31579 h 13.75439 V 232.10526 H 339.9693 Z"/>
		<path d="M 403.61513,266.77193 H 422.2818 V 290 h 13.19298 V 232.10526 H 422.2818 v 23.08772 H 403.61513 V 232.10526 H 390.42215 V 290 h 13.19298 z"/>
		<path d="m 446.27961,261.01754 c 0,16.91228 12.07017,30.03509 29.19298,30.03509 16.63158,0 29.12281,-13.12281 29.12281,-30.03509 0,-16.91228 -13.05263,-29.96491 -29.12281,-29.96491 -15.92982,0 -29.19298,13.05263 -29.19298,29.96491 z m 14.24561,0 c 0,-8.63157 4.77193,-17.26315 14.94737,-17.26315 10.24561,0 14.87719,8.63158 14.87719,17.26315 0,8.63158 -4.35087,17.26316 -14.87719,17.26316 -10.80702,0 -14.94737,-8.63158 -14.94737,-17.26316 z"/>
		<path d="m 563.27632,290 h 13.19298 l -5.19298,-57.89474 h -14.03509 l -12.8421,33.40351 -12.84211,-33.40351 H 517.52194 L 512.32895,290 h 13.19299 l 2.73684,-34.31579 h 0.35087 l 11.85965,33.96491 h 7.85965 l 11.85965,-33.96491 h 0.35088 z"/>
		<path d="M 616.15789,232.10526 H 603.94736 L 580.57894,290 h 14.17544 l 4.2807,-11.57895 h 22.03509 L 625.35087,290 h 14.17544 z m 0.42105,34.73685 H 603.52631 L 609.98245,250 h 0.14035 z"/>
		<path d="m 666.67872,231.05263 c -9.33334,0 -18.8772,6.8772 -18.8772,17.68421 0,6.03509 4.07018,11.4386 11.01755,14.8772 6.87719,3.43859 13.05263,5.33333 13.05263,9.54385 0,5.40351 -5.47369,5.68422 -8.35088,5.68422 -6.45614,0 -14.17544,-6.52632 -14.17544,-6.52632 l -6.59649,11.08772 c 0,0 8.21053,7.64912 21.75439,7.64912 11.29824,0 21.82456,-4.8421 21.82456,-18.66666 0,-7.57895 -7.08772,-13.05264 -13.54386,-15.78948 -6.59649,-2.80702 -12.07018,-5.12281 -12.07018,-8.35088 0,-3.15789 2.38597,-5.19298 6.8772,-5.19298 5.96491,0 11.7193,4 11.7193,4 l 5.33333,-10.52631 c 0,0 -7.4386,-5.47369 -17.96491,-5.47369 z"/>
		<path d="m 769.54277,290 h 13.19298 l -5.19298,-57.89474 h -14.03509 l -12.8421,33.40351 -12.84211,-33.40351 H 723.78838 L 718.5954,290 h 13.19298 l 2.73685,-34.31579 h 0.35087 l 11.85965,33.96491 h 7.85965 l 11.85965,-33.96491 h 0.35088 z"/>
		<path d="M 822.42434,232.10526 H 810.21381 L 786.84539,290 h 14.17544 l 4.2807,-11.57895 h 22.03509 L 831.61732,290 h 14.17544 z m 0.42105,34.73685 H 809.79276 L 816.2489,250 h 0.14035 z"/>
		<path d="M 866.17542,232.10526 H 852.98244 V 290 h 33.1228 v -11.57895 h -19.92982 z"/>
		<path d="m 894.99673,261.01754 c 0,16.91228 12.07017,30.03509 29.19298,30.03509 16.63158,0 29.1228,-13.12281 29.1228,-30.03509 0,-16.91228 -13.05263,-29.96491 -29.1228,-29.96491 -15.92983,0 -29.19298,13.05263 -29.19298,29.96491 z m 14.24561,0 c 0,-8.63157 4.77193,-17.26315 14.94737,-17.26315 10.24561,0 14.87719,8.63158 14.87719,17.26315 0,8.63158 -4.35088,17.26316 -14.87719,17.26316 -10.80702,0 -14.94737,-8.63158 -14.94737,-17.26316 z"/>
		<path d="M 964.13374,232.10526 V 290 h 13.19299 V 267.12281 L 995.01094,290 h 16.77196 l -19.92986,-23.92982 c 7.08772,-2.24562 11.85966,-8.07018 11.85966,-16.77193 0,-11.36842 -8.14036,-17.19299 -18.8772,-17.19299 z m 13.19299,25.68421 v -15.15789 h 1.54386 c 4.98245,0 10.94736,0.35088 10.94736,7.57895 0,7.22807 -5.96491,7.57894 -10.94736,7.57894 z"/>
		<path d="m 1006.8147,232.10526 21.3333,31.92983 V 290 h 13.193 v -25.96491 l 21.3333,-31.92983 h -15.8596 l -12.0702,18.52632 -12.0702,-18.52632 z"/>
	</g>
</svg>
